<?xml version="1.0" encoding="UTF-8" standalone="no" ?>
<!DOCTYPE svg PUBLIC "-//W3C//DTD SVG 1.1//EN" "http://www.w3.org/Graphics/SVG/1.1/DTD/svg11.dtd">
<svg xmlns="http://www.w3.org/2000/svg" xmlns:xlink="http://www.w3.org/1999/xlink" version="1.1" width="1280" height="1024" viewBox="0 0 1280 1024" xml:space="preserve">
<desc>Created with Fabric.js 5.3.0</desc>
<defs>
</defs>
<g transform="matrix(1 0 0 1 640 512)" id="background-logo"  >
<rect style="stroke: none; stroke-width: 0; stroke-dasharray: none; stroke-linecap: butt; stroke-dashoffset: 0; stroke-linejoin: miter; stroke-miterlimit: 4; fill: rgb(255,255,255); fill-opacity: 0; fill-rule: nonzero; opacity: 1;"  paint-order="stroke"  x="-640" y="-512" rx="0" ry="0" width="1280" height="1024" />
</g>
<g transform="matrix(1.9211538461538462 0 0 1.9211538461538462 640 399.7943462493941)" id="logo-logo"  >
<g style=""  paint-order="stroke"   >
		<g transform="matrix(0.8035924008170511 0 0 0.8035924008170511 40.42069776109764 29.411481869904065)"  >
<polygon style="stroke: none; stroke-width: 1; stroke-dasharray: none; stroke-linecap: butt; stroke-dashoffset: 0; stroke-linejoin: miter; stroke-miterlimit: 4; fill: rgb(201,158,83); fill-rule: nonzero; opacity: 1;"  paint-order="stroke"  points="19.19999999999999,55.35000000000002 19.19999999999999,17.150000000000034 36.30000000000001,17.150000000000034 -36.30000000000001,-55.349999999999994 -36.30000000000001,55.35000000000002 " />
</g>
		<g transform="matrix(0.8035924008170511 0 0 0.8035924008170511 28.969506049454708 -34.956269435541714)"  >
<polygon style="stroke: none; stroke-width: 1; stroke-dasharray: none; stroke-linecap: butt; stroke-dashoffset: 0; stroke-linejoin: miter; stroke-miterlimit: 4; fill: rgb(201,158,83); fill-rule: nonzero; opacity: 1;"  paint-order="stroke"  points="33.14999999999998,29.650000000000006 -33.150000000000006,-36.650000000000006 -33.150000000000006,-29.549999999999983 33.14999999999998,36.650000000000006 " />
</g>
		<g transform="matrix(0.8035924008170511 0 0 0.8035924008170511 28.969506049454708 -22.179150262550564)"  >
<polygon style="stroke: none; stroke-width: 1; stroke-dasharray: none; stroke-linecap: butt; stroke-dashoffset: 0; stroke-linejoin: miter; stroke-miterlimit: 4; fill: rgb(201,158,83); fill-rule: nonzero; opacity: 1;"  paint-order="stroke"  points="33.14999999999998,29.650000000000006 -33.150000000000006,-36.650000000000006 -33.150000000000006,-29.55000000000001 33.14999999999998,36.64999999999998 " />
</g>
		<g transform="matrix(0.8035924008170511 0 0 0.8035924008170511 28.969506049454708 -9.402031089559472)"  >
<polygon style="stroke: none; stroke-width: 1; stroke-dasharray: none; stroke-linecap: butt; stroke-dashoffset: 0; stroke-linejoin: miter; stroke-miterlimit: 4; fill: rgb(201,158,83); fill-rule: nonzero; opacity: 1;"  paint-order="stroke"  points="33.14999999999998,29.650000000000006 -33.150000000000006,-36.650000000000006 -33.150000000000006,-29.55000000000001 33.14999999999998,36.650000000000006 " />
</g>
		<g transform="matrix(0.8035924008170511 0 0 0.8035924008170511 -36.24201727684897 2.842171e-14)"  >
<path style="stroke: none; stroke-width: 1; stroke-dasharray: none; stroke-linecap: butt; stroke-dashoffset: 0; stroke-linejoin: miter; stroke-miterlimit: 4; fill: rgb(53,53,53); fill-rule: evenodd; opacity: 1;"  paint-order="stroke"  transform=" translate(-204.4, -248.85)" d="M 245.9 235.6 L 245.9 155.8 L 162.9 238.8 L 162.9 341.9 L 164.9 341.9 L 164.9 305.4 L 243.9 226.39999999999998 L 243.9 234.79999999999998 L 180.2 298.5 L 196.29999999999998 298.5 L 196.29999999999998 341.9 L 198.29999999999998 341.9 L 198.29999999999998 296.5 L 185.1 296.5 L 245.9 235.6 z M 164.9 249.4 L 243.9 170.4 L 243.9 178.8 L 164.9 257.8 L 164.9 249.4 z M 164.9 260.6 L 243.9 181.60000000000002 L 243.9 190.00000000000003 L 164.9 269 L 164.9 260.6 z M 164.9 271.8 L 243.9 192.8 L 243.9 201.20000000000002 L 164.9 280.20000000000005 L 164.9 271.8 z M 164.9 283 L 243.9 204 L 243.9 212.4 L 164.9 291.4 L 164.9 283 z M 243.9 160.6 L 243.9 167.6 L 164.9 246.6 L 164.9 239.6 L 243.9 160.6 z M 164.9 302.5 L 164.9 294.1 L 243.9 215.10000000000002 L 243.9 223.50000000000003 L 164.9 302.5 z" stroke-linecap="round" />
</g>
		<g transform="matrix(0.5682201866177367 -0.5682201866177364 0.5682201866177363 0.5682201866177365 8.99282174925338 2.14730737995734)"  >
<rect style="stroke: none; stroke-width: 0; stroke-dasharray: none; stroke-linecap: butt; stroke-dashoffset: 0; stroke-linejoin: miter; stroke-miterlimit: 4; fill: rgb(53,53,53); fill-rule: evenodd; opacity: 1;"  paint-order="stroke"  x="-1.5" y="-2.55" rx="0" ry="0" width="3" height="5.1" />
</g>
		<g transform="matrix(0.5682201866177367 -0.5682201866177364 0.5682201866177363 0.5682201866177365 3.7620057705389627 -2.9622465054738143)"  >
<rect style="stroke: none; stroke-width: 0; stroke-dasharray: none; stroke-linecap: butt; stroke-dashoffset: 0; stroke-linejoin: miter; stroke-miterlimit: 4; fill: rgb(53,53,53); fill-rule: evenodd; opacity: 1;"  paint-order="stroke"  x="-1.5" y="-2.55" rx="0" ry="0" width="3" height="5.1" />
</g>
		<g transform="matrix(0.5682201866177367 -0.5682201866177364 0.5682201866177363 0.5682201866177365 -1.3692370737902024 -8.105157511462892)"  >
<rect style="stroke: none; stroke-width: 0; stroke-dasharray: none; stroke-linecap: butt; stroke-dashoffset: 0; stroke-linejoin: miter; stroke-miterlimit: 4; fill: rgb(53,53,53); fill-rule: evenodd; opacity: 1;"  paint-order="stroke"  x="-1.5" y="-2.55" rx="0" ry="0" width="3" height="5.1" />
</g>
		<g transform="matrix(0.5682201866177367 -0.5682201866177364 0.5682201866177363 0.5682201866177365 24.508559716457 17.770196357885823)"  >
<rect style="stroke: none; stroke-width: 0; stroke-dasharray: none; stroke-linecap: butt; stroke-dashoffset: 0; stroke-linejoin: miter; stroke-miterlimit: 4; fill: rgb(53,53,53); fill-rule: evenodd; opacity: 1;"  paint-order="stroke"  x="-1.5" y="-2.55" rx="0" ry="0" width="3" height="5.1" />
</g>
		<g transform="matrix(0.5682201866177367 -0.5682201866177364 0.5682201866177363 0.5682201866177365 19.359870881106133 12.512845758096375)"  >
<rect style="stroke: none; stroke-width: 0; stroke-dasharray: none; stroke-linecap: butt; stroke-dashoffset: 0; stroke-linejoin: miter; stroke-miterlimit: 4; fill: rgb(53,53,53); fill-rule: evenodd; opacity: 1;"  paint-order="stroke"  x="-1.5" y="-2.55" rx="0" ry="0" width="3" height="5.1" />
</g>
		<g transform="matrix(0.5682201866177367 -0.5682201866177364 0.5682201866177363 0.5682201866177365 14.226699415014934 7.370657985268167)"  >
<rect style="stroke: none; stroke-width: 0; stroke-dasharray: none; stroke-linecap: butt; stroke-dashoffset: 0; stroke-linejoin: miter; stroke-miterlimit: 4; fill: rgb(53,53,53); fill-rule: evenodd; opacity: 1;"  paint-order="stroke"  x="-1.5" y="-2.55" rx="0" ry="0" width="3" height="5.1" />
</g>
		<g transform="matrix(0.5682201866177367 -0.5682201866177364 0.5682201866177363 0.5682201866177365 40.1065051862642 33.24520826221601)"  >
<rect style="stroke: none; stroke-width: 0; stroke-dasharray: none; stroke-linecap: butt; stroke-dashoffset: 0; stroke-linejoin: miter; stroke-miterlimit: 4; fill: rgb(53,53,53); fill-rule: evenodd; opacity: 1;"  paint-order="stroke"  x="-1.5" y="-2.55" rx="0" ry="0" width="3" height="5.1" />
</g>
		<g transform="matrix(0.8035924008170511 0 0 0.8035924008170511 34.91608981550087 28.406991368882757)"  >
<polygon style="stroke: none; stroke-width: 1; stroke-dasharray: none; stroke-linecap: butt; stroke-dashoffset: 0; stroke-linejoin: miter; stroke-miterlimit: 4; fill: rgb(53,53,53); fill-rule: evenodd; opacity: 1;"  paint-order="stroke"  points="-2.3500000000000227,-1.6999999999999886 -2.4500000000000455,-1.6999999999999886 -2.4500000000000455,-1.599999999999966 -2.8500000000000227,-1.099999999999966 -2.4500000000000455,-0.5999999999999659 -2.4500000000000455,3.1999999999999886 0.5499999999999545,3.1999999999999886 0.5499999999999545,2.400000000000034 0.7499999999999432,2.5 2.849999999999966,0.4000000000000341 -0.7500000000000568,-3.1999999999999886 " />
</g>
		<g transform="matrix(0.5682201866177367 -0.5682201866177364 0.5682201866177363 0.5682201866177365 29.744285644740387 22.992582652315633)"  >
<rect style="stroke: none; stroke-width: 0; stroke-dasharray: none; stroke-linecap: butt; stroke-dashoffset: 0; stroke-linejoin: miter; stroke-miterlimit: 4; fill: rgb(53,53,53); fill-rule: evenodd; opacity: 1;"  paint-order="stroke"  x="-1.5" y="-2.55" rx="0" ry="0" width="3" height="5.1" />
</g>
		<g transform="matrix(0.5682201866177367 -0.5682201866177364 0.5682201866177363 0.5682201866177365 55.62015381322567 48.86890083254539)"  >
<rect style="stroke: none; stroke-width: 0; stroke-dasharray: none; stroke-linecap: butt; stroke-dashoffset: 0; stroke-linejoin: miter; stroke-miterlimit: 4; fill: rgb(53,53,53); fill-rule: evenodd; opacity: 1;"  paint-order="stroke"  x="-1.5" y="-2.55" rx="0" ry="0" width="3" height="5.1" />
</g>
		<g transform="matrix(0.5682201866177367 -0.5682201866177364 0.5682201866177363 0.5682201866177365 50.471706055595064 43.61138951427583)"  >
<rect style="stroke: none; stroke-width: 0; stroke-dasharray: none; stroke-linecap: butt; stroke-dashoffset: 0; stroke-linejoin: miter; stroke-miterlimit: 4; fill: rgb(53,53,53); fill-rule: evenodd; opacity: 1;"  paint-order="stroke"  x="-1.5" y="-2.55" rx="0" ry="0" width="3" height="5.1" />
</g>
		<g transform="matrix(0.5682201866177367 -0.5682201866177364 0.5682201866177363 0.5682201866177365 45.224737869624164 38.502639221245516)"  >
<rect style="stroke: none; stroke-width: 0; stroke-dasharray: none; stroke-linecap: butt; stroke-dashoffset: 0; stroke-linejoin: miter; stroke-miterlimit: 4; fill: rgb(53,53,53); fill-rule: evenodd; opacity: 1;"  paint-order="stroke"  x="-1.5" y="-2.55" rx="0" ry="0" width="3" height="5.1" />
</g>
		<g transform="matrix(0.8035924008170511 0 0 0.8035924008170511 -17.719212438015973 44.43865976518293)"  >
<rect style="stroke: none; stroke-width: 0; stroke-dasharray: none; stroke-linecap: butt; stroke-dashoffset: 0; stroke-linejoin: miter; stroke-miterlimit: 4; fill: rgb(53,53,53); fill-rule: evenodd; opacity: 1;"  paint-order="stroke"  x="-6.75" y="-6.75" rx="0" ry="0" width="13.5" height="13.5" />
</g>
		<g transform="matrix(0.8035924008170511 0 0 0.8035924008170511 -3.817063903880978 44.43865976518293)"  >
<rect style="stroke: none; stroke-width: 0; stroke-dasharray: none; stroke-linecap: butt; stroke-dashoffset: 0; stroke-linejoin: miter; stroke-miterlimit: 4; fill: rgb(53,53,53); fill-rule: evenodd; opacity: 1;"  paint-order="stroke"  x="-6.75" y="-6.75" rx="0" ry="0" width="13.5" height="13.5" />
</g>
		<g transform="matrix(0.8035924008170511 0 0 0.8035924008170511 -17.719212438015973 58.90332297988982)"  >
<rect style="stroke: none; stroke-width: 0; stroke-dasharray: none; stroke-linecap: butt; stroke-dashoffset: 0; stroke-linejoin: miter; stroke-miterlimit: 4; fill: rgb(53,53,53); fill-rule: evenodd; opacity: 1;"  paint-order="stroke"  x="-6.75" y="-6.75" rx="0" ry="0" width="13.5" height="13.5" />
</g>
		<g transform="matrix(0.8035924008170511 0 0 0.8035924008170511 -3.817063903880978 58.90332297988982)"  >
<rect style="stroke: none; stroke-width: 0; stroke-dasharray: none; stroke-linecap: butt; stroke-dashoffset: 0; stroke-linejoin: miter; stroke-miterlimit: 4; fill: rgb(53,53,53); fill-rule: evenodd; opacity: 1;"  paint-order="stroke"  x="-6.75" y="-6.75" rx="0" ry="0" width="13.5" height="13.5" />
</g>
		<g transform="matrix(0.8035924008170511 0 0 0.8035924008170511 34.15267703472466 -55.2871571762131)"  >
<rect style="stroke: none; stroke-width: 0; stroke-dasharray: none; stroke-linecap: butt; stroke-dashoffset: 0; stroke-linejoin: miter; stroke-miterlimit: 4; fill: rgb(53,53,53); fill-rule: evenodd; opacity: 1;"  paint-order="stroke"  x="-1.5" y="-2.45" rx="0" ry="0" width="3" height="4.9" />
</g>
		<g transform="matrix(0.8035924008170511 0 0 0.8035924008170511 34.15267703472466 -62.278411063321414)"  >
<rect style="stroke: none; stroke-width: 0; stroke-dasharray: none; stroke-linecap: butt; stroke-dashoffset: 0; stroke-linejoin: miter; stroke-miterlimit: 4; fill: rgb(53,53,53); fill-rule: evenodd; opacity: 1;"  paint-order="stroke"  x="-1.5" y="-2.45" rx="0" ry="0" width="3" height="4.9" />
</g>
		<g transform="matrix(0.8035924008170511 0 0 0.8035924008170511 34.15267703472466 -69.26966495042979)"  >
<rect style="stroke: none; stroke-width: 0; stroke-dasharray: none; stroke-linecap: butt; stroke-dashoffset: 0; stroke-linejoin: miter; stroke-miterlimit: 4; fill: rgb(53,53,53); fill-rule: evenodd; opacity: 1;"  paint-order="stroke"  x="-1.5" y="-2.45" rx="0" ry="0" width="3" height="4.9" />
</g>
		<g transform="matrix(0.8035924008170511 0 0 0.8035924008170511 34.15267703472466 -34.23303627480635)"  >
<rect style="stroke: none; stroke-width: 0; stroke-dasharray: none; stroke-linecap: butt; stroke-dashoffset: 0; stroke-linejoin: miter; stroke-miterlimit: 4; fill: rgb(53,53,53); fill-rule: evenodd; opacity: 1;"  paint-order="stroke"  x="-1.5" y="-2.45" rx="0" ry="0" width="3" height="4.9" />
</g>
		<g transform="matrix(0.8035924008170511 0 0 0.8035924008170511 34.15267703472466 -41.224290161914695)"  >
<rect style="stroke: none; stroke-width: 0; stroke-dasharray: none; stroke-linecap: butt; stroke-dashoffset: 0; stroke-linejoin: miter; stroke-miterlimit: 4; fill: rgb(53,53,53); fill-rule: evenodd; opacity: 1;"  paint-order="stroke"  x="-1.5" y="-2.45" rx="0" ry="0" width="3" height="4.9" />
</g>
		<g transform="matrix(0.8035924008170511 0 0 0.8035924008170511 34.15267703472466 -48.21554404902304)"  >
<rect style="stroke: none; stroke-width: 0; stroke-dasharray: none; stroke-linecap: butt; stroke-dashoffset: 0; stroke-linejoin: miter; stroke-miterlimit: 4; fill: rgb(53,53,53); fill-rule: evenodd; opacity: 1;"  paint-order="stroke"  x="-1.5" y="-2.45" rx="0" ry="0" width="3" height="4.9" />
</g>
		<g transform="matrix(0.8035924008170511 0 0 0.8035924008170511 34.15267703472466 -13.098556133317913)"  >
<rect style="stroke: none; stroke-width: 0; stroke-dasharray: none; stroke-linecap: butt; stroke-dashoffset: 0; stroke-linejoin: miter; stroke-miterlimit: 4; fill: rgb(53,53,53); fill-rule: evenodd; opacity: 1;"  paint-order="stroke"  x="-1.5" y="-2.45" rx="0" ry="0" width="3" height="4.9" />
</g>
		<g transform="matrix(0.8035924008170511 0 0 0.8035924008170511 34.15267703472466 -20.170169260507947)"  >
<rect style="stroke: none; stroke-width: 0; stroke-dasharray: none; stroke-linecap: butt; stroke-dashoffset: 0; stroke-linejoin: miter; stroke-miterlimit: 4; fill: rgb(53,53,53); fill-rule: evenodd; opacity: 1;"  paint-order="stroke"  x="-1.5" y="-2.45" rx="0" ry="0" width="3" height="4.9" />
</g>
		<g transform="matrix(0.8035924008170511 0 0 0.8035924008170511 34.15267703472466 -27.16142314761632)"  >
<rect style="stroke: none; stroke-width: 0; stroke-dasharray: none; stroke-linecap: butt; stroke-dashoffset: 0; stroke-linejoin: miter; stroke-miterlimit: 4; fill: rgb(53,53,53); fill-rule: evenodd; opacity: 1;"  paint-order="stroke"  x="-1.5" y="-2.45" rx="0" ry="0" width="3" height="4.9" />
</g>
		<g transform="matrix(0.8035924008170511 0 0 0.8035924008170511 34.15267703472466 7.955564768088834)"  >
<rect style="stroke: none; stroke-width: 0; stroke-dasharray: none; stroke-linecap: butt; stroke-dashoffset: 0; stroke-linejoin: miter; stroke-miterlimit: 4; fill: rgb(53,53,53); fill-rule: evenodd; opacity: 1;"  paint-order="stroke"  x="-1.5" y="-2.45" rx="0" ry="0" width="3" height="4.9" />
</g>
		<g transform="matrix(0.8035924008170511 0 0 0.8035924008170511 34.15267703472466 0.9643108809804914)"  >
<rect style="stroke: none; stroke-width: 0; stroke-dasharray: none; stroke-linecap: butt; stroke-dashoffset: 0; stroke-linejoin: miter; stroke-miterlimit: 4; fill: rgb(53,53,53); fill-rule: evenodd; opacity: 1;"  paint-order="stroke"  x="-1.5" y="-2.45" rx="0" ry="0" width="3" height="4.9" />
</g>
		<g transform="matrix(0.8035924008170511 0 0 0.8035924008170511 34.15267703472466 -6.026943006127851)"  >
<rect style="stroke: none; stroke-width: 0; stroke-dasharray: none; stroke-linecap: butt; stroke-dashoffset: 0; stroke-linejoin: miter; stroke-miterlimit: 4; fill: rgb(53,53,53); fill-rule: evenodd; opacity: 1;"  paint-order="stroke"  x="-1.5" y="-2.45" rx="0" ry="0" width="3" height="4.9" />
</g>
		<g transform="matrix(0.8035924008170511 0 0 0.8035924008170511 34.15267703472466 22.01843178238721)"  >
<rect style="stroke: none; stroke-width: 0; stroke-dasharray: none; stroke-linecap: butt; stroke-dashoffset: 0; stroke-linejoin: miter; stroke-miterlimit: 4; fill: rgb(53,53,53); fill-rule: evenodd; opacity: 1;"  paint-order="stroke"  x="-1.5" y="-2.45" rx="0" ry="0" width="3" height="4.9" />
</g>
		<g transform="matrix(0.8035924008170511 0 0 0.8035924008170511 34.15267703472466 15.027177895278896)"  >
<rect style="stroke: none; stroke-width: 0; stroke-dasharray: none; stroke-linecap: butt; stroke-dashoffset: 0; stroke-linejoin: miter; stroke-miterlimit: 4; fill: rgb(53,53,53); fill-rule: evenodd; opacity: 1;"  paint-order="stroke"  x="-1.5" y="-2.45" rx="0" ry="0" width="3" height="4.9" />
</g>
		<g transform="matrix(0.8035924008170511 0 0 0.8035924008170511 34.15267703472466 50.14416581098399)"  >
<rect style="stroke: none; stroke-width: 0; stroke-dasharray: none; stroke-linecap: butt; stroke-dashoffset: 0; stroke-linejoin: miter; stroke-miterlimit: 4; fill: rgb(53,53,53); fill-rule: evenodd; opacity: 1;"  paint-order="stroke"  x="-1.5" y="-2.45" rx="0" ry="0" width="3" height="4.9" />
</g>
		<g transform="matrix(0.8035924008170511 0 0 0.8035924008170511 34.15267703472466 43.07255268379396)"  >
<rect style="stroke: none; stroke-width: 0; stroke-dasharray: none; stroke-linecap: butt; stroke-dashoffset: 0; stroke-linejoin: miter; stroke-miterlimit: 4; fill: rgb(53,53,53); fill-rule: evenodd; opacity: 1;"  paint-order="stroke"  x="-1.5" y="-2.45" rx="0" ry="0" width="3" height="4.9" />
</g>
		<g transform="matrix(0.8035924008170511 0 0 0.8035924008170511 34.15267703472466 36.081298796685616)"  >
<rect style="stroke: none; stroke-width: 0; stroke-dasharray: none; stroke-linecap: butt; stroke-dashoffset: 0; stroke-linejoin: miter; stroke-miterlimit: 4; fill: rgb(53,53,53); fill-rule: evenodd; opacity: 1;"  paint-order="stroke"  x="-1.5" y="-2.45" rx="0" ry="0" width="3" height="4.9" />
</g>
		<g transform="matrix(0.8035924008170511 0 0 0.8035924008170511 34.15267703472466 61.84173231847177)"  >
<rect style="stroke: none; stroke-width: 0; stroke-dasharray: none; stroke-linecap: butt; stroke-dashoffset: 0; stroke-linejoin: miter; stroke-miterlimit: 4; fill: rgb(53,53,53); fill-rule: evenodd; opacity: 1;"  paint-order="stroke"  x="-1.5" y="-2.45" rx="0" ry="0" width="3" height="4.9" />
</g>
		<g transform="matrix(0.8035924008170511 0 0 0.8035924008170511 34.15267703472466 64.2070328252824)"  >
<rect style="stroke: none; stroke-width: 0; stroke-dasharray: none; stroke-linecap: butt; stroke-dashoffset: 0; stroke-linejoin: miter; stroke-miterlimit: 4; fill: rgb(53,53,53); fill-rule: evenodd; opacity: 1;"  paint-order="stroke"  x="-1.5" y="-2.45" rx="0" ry="0" width="3" height="4.9" />
</g>
		<g transform="matrix(0.8035924008170511 0 0 0.8035924008170511 34.15267703472466 57.215778938174026)"  >
<rect style="stroke: none; stroke-width: 0; stroke-dasharray: none; stroke-linecap: butt; stroke-dashoffset: 0; stroke-linejoin: miter; stroke-miterlimit: 4; fill: rgb(53,53,53); fill-rule: evenodd; opacity: 1;"  paint-order="stroke"  x="-1.5" y="-2.45" rx="0" ry="0" width="3" height="4.9" />
</g>
</g>
</g>
<g transform="matrix(1.9211538461538462 0 0 1.9211538461538462 640.100860576923 636.0382611287104)" id="text-logo"  >
<g style=""  paint-order="stroke"   >
		<g transform="matrix(1 0 0 1 0 0)" id="text-logo-path-0"  >
<filter id="SVGID_447358" y="-26.470033717156852%" height="152.9400674343137%" x="-20.38043798256882%" width="140.76087596513764%" >
	<feGaussianBlur in="SourceAlpha" stdDeviation="0"></feGaussianBlur>
	<feOffset dx="-2.3301826432340405" dy="1.5534550954893602" result="oBlur" ></feOffset>
	<feFlood flood-color="rgb(201,158,83)" flood-opacity="1"/>
	<feComposite in2="oBlur" operator="in" />
	<feMerge>
		<feMergeNode></feMergeNode>
		<feMergeNode in="SourceGraphic"></feMergeNode>
	</feMerge>
</filter>
<path style="stroke: rgb(255,255,255); stroke-width: 0; stroke-dasharray: none; stroke-linecap: butt; stroke-dashoffset: 0; stroke-linejoin: miter; stroke-miterlimit: 4; fill: rgb(53,53,53); fill-rule: nonzero; opacity: 1;filter: url(#SVGID_447358);"  paint-order="stroke"  transform=" translate(-307.65, 12.255)" d="M 1.4 -22.4 L 1.4 -2.1 C 1.4 -1.09 2.21 -0.28 3.22 -0.28 L 8.82 -0.28 C 15.51 -0.28 20.86 -5.6 20.86 -12.29 C 20.86 -18.9 15.51 -24.26 8.82 -24.26 L 3.22 -24.26 C 2.21 -24.26 1.4 -23.42 1.4 -22.4 Z M 3.68 -2.56 L 3.68 -21.98 L 8.82 -21.98 C 14.42 -21.98 18.59 -17.82 18.59 -12.29 C 18.59 -6.69 14.42 -2.56 8.82 -2.56 Z M 31.12 -1.4 L 31.12 -23.1 C 31.12 -23.73 30.59 -24.26 29.96 -24.26 C 29.33 -24.26 28.84 -23.73 28.84 -23.1 L 28.84 -1.4 C 28.84 -0.77 29.33 -0.28 29.96 -0.28 C 30.59 -0.28 31.12 -0.77 31.12 -1.4 Z M 55.62 -2.1 L 50.65 -8.93 C 53.8 -9.91 56.11 -12.88 56.11 -16.45 C 56.11 -20.76 52.61 -24.26 48.3 -24.26 L 40.91 -24.26 C 39.9 -24.26 39.09 -23.42 39.09 -22.4 L 39.09 -1.4 C 39.09 -0.77 39.59 -0.28 40.22 -0.28 C 40.84 -0.28 41.37 -0.77 41.37 -1.4 L 41.37 -8.58 L 41.51 -8.58 L 48.09 -8.58 L 53.8 -0.74 C 54.01 -0.46 54.32 -0.28 54.7 -0.28 C 55.34 -0.28 55.83 -0.81 55.83 -1.44 C 55.83 -1.68 55.76 -1.93 55.62 -2.1 Z M 41.37 -10.85 L 41.37 -21.98 L 48.3 -21.98 C 51.52 -21.98 53.83 -19.67 53.83 -16.45 C 53.83 -13.13 51.52 -10.85 48.3 -10.85 L 41.51 -10.85 Z M 79.24 -2.56 L 66.36 -2.56 L 66.36 -11.13 L 75.74 -11.13 C 76.37 -11.13 76.86 -11.62 76.86 -12.25 C 76.86 -12.88 76.37 -13.41 75.74 -13.41 L 66.36 -13.41 L 66.36 -21.98 L 79.24 -21.98 C 79.87 -21.98 80.36 -22.47 80.36 -23.1 C 80.36 -23.73 79.87 -24.26 79.24 -24.26 L 65.91 -24.26 C 64.89 -24.26 64.09 -23.42 64.09 -22.4 L 64.09 -2.1 C 64.09 -1.09 64.89 -0.28 65.91 -0.28 L 79.24 -0.28 C 79.87 -0.28 80.36 -0.77 80.36 -1.4 C 80.36 -2.03 79.87 -2.56 79.24 -2.56 Z M 107.52 -5.74 C 105.66 -3.71 103.28 -2.56 100.34 -2.56 C 94.75 -2.56 90.61 -6.69 90.61 -12.29 C 90.61 -17.82 94.75 -21.98 100.34 -21.98 C 102.66 -21.98 104.65 -21.21 106.33 -19.88 C 106.5 -19.71 106.75 -19.64 107.03 -19.64 C 107.66 -19.64 108.19 -20.13 108.19 -20.76 C 108.19 -21.11 108.01 -21.42 107.73 -21.63 C 105.73 -23.24 103.11 -24.26 100.34 -24.26 C 93.66 -24.26 88.34 -18.9 88.34 -12.29 C 88.34 -5.6 93.66 -0.28 100.34 -0.28 C 103.84 -0.28 107 -1.79 109.2 -4.2 C 109.38 -4.41 109.52 -4.69 109.52 -4.97 C 109.52 -5.6 108.99 -6.13 108.36 -6.13 C 108.01 -6.13 107.73 -5.95 107.52 -5.74 Z M 125.02 -1.37 L 125.02 -21.98 L 131.56 -21.98 C 132.19 -21.98 132.72 -22.47 132.72 -23.1 C 132.72 -23.73 132.19 -24.26 131.56 -24.26 L 116.16 -24.26 C 115.53 -24.26 115.04 -23.73 115.04 -23.1 C 115.04 -22.47 115.53 -21.98 116.16 -21.98 L 122.74 -21.98 L 122.74 -1.37 C 122.74 -0.74 123.23 -0.25 123.86 -0.25 C 124.49 -0.25 125.02 -0.74 125.02 -1.37 Z M 166.35 -1.37 L 166.35 -21.98 L 172.9 -21.98 C 173.53 -21.98 174.06 -22.47 174.06 -23.1 C 174.06 -23.73 173.53 -24.26 172.9 -24.26 L 157.5 -24.26 C 156.87 -24.26 156.38 -23.73 156.38 -23.1 C 156.38 -22.47 156.87 -21.98 157.5 -21.98 L 164.08 -21.98 L 164.08 -1.37 C 164.08 -0.74 164.57 -0.25 165.2 -0.25 C 165.83 -0.25 166.35 -0.74 166.35 -1.37 Z M 198.56 -2.1 L 193.58 -8.93 C 196.73 -9.91 199.04 -12.88 199.04 -16.45 C 199.04 -20.76 195.54 -24.26 191.24 -24.26 L 183.85 -24.26 C 182.84 -24.26 182.03 -23.42 182.03 -22.4 L 182.03 -1.4 C 182.03 -0.77 182.52 -0.28 183.16 -0.28 C 183.78 -0.28 184.31 -0.77 184.31 -1.4 L 184.31 -8.58 L 184.45 -8.58 L 191.03 -8.58 L 196.73 -0.74 C 196.94 -0.46 197.26 -0.28 197.64 -0.28 C 198.27 -0.28 198.76 -0.81 198.76 -1.44 C 198.76 -1.68 198.69 -1.93 198.56 -2.1 Z M 184.31 -10.85 L 184.31 -21.98 L 191.24 -21.98 C 194.46 -21.98 196.77 -19.67 196.77 -16.45 C 196.77 -13.13 194.46 -10.85 191.24 -10.85 L 184.45 -10.85 Z M 228.06 -1.86 L 219.63 -22.79 C 218.85 -24.68 216.34 -24.68 215.56 -22.79 L 207.13 -1.86 C 207.06 -1.72 207.03 -1.58 207.03 -1.4 C 207.03 -0.77 207.55 -0.28 208.18 -0.28 C 208.63 -0.28 209.06 -0.56 209.23 -0.95 L 210.98 -5.32 L 224.21 -5.32 L 225.96 -0.95 C 226.13 -0.56 226.56 -0.28 227.01 -0.28 C 227.64 -0.28 228.16 -0.77 228.16 -1.4 C 228.16 -1.58 228.13 -1.72 228.06 -1.86 Z M 211.89 -7.6 L 217.59 -21.77 L 223.3 -7.6 Z M 236.15 -22.4 L 236.15 -2.1 C 236.15 -1.09 236.95 -0.28 237.97 -0.28 L 243.56 -0.28 C 250.25 -0.28 255.61 -5.6 255.61 -12.29 C 255.61 -18.9 250.25 -24.26 243.56 -24.26 L 237.97 -24.26 C 236.95 -24.26 236.15 -23.42 236.15 -22.4 Z M 238.42 -2.56 L 238.42 -21.98 L 243.56 -21.98 C 249.17 -21.98 253.33 -17.82 253.33 -12.29 C 253.33 -6.69 249.17 -2.56 243.56 -2.56 Z M 278.74 -2.56 L 265.86 -2.56 L 265.86 -11.13 L 275.24 -11.13 C 275.87 -11.13 276.36 -11.62 276.36 -12.25 C 276.36 -12.88 275.87 -13.41 275.24 -13.41 L 265.86 -13.41 L 265.86 -21.98 L 278.74 -21.98 C 279.37 -21.98 279.86 -22.47 279.86 -23.1 C 279.86 -23.73 279.37 -24.26 278.74 -24.26 L 265.41 -24.26 C 264.39 -24.26 263.58 -23.42 263.58 -22.4 L 263.58 -2.1 C 263.58 -1.09 264.39 -0.28 265.41 -0.28 L 278.74 -0.28 C 279.37 -0.28 279.86 -0.77 279.86 -1.4 C 279.86 -2.03 279.37 -2.56 278.74 -2.56 Z M 328.19 -1.37 L 328.19 -21.91 C 328.19 -24.19 325.39 -25.1 324.1 -23.24 L 315.84 -11.9 L 307.58 -23.24 C 306.29 -25.1 303.52 -24.19 303.52 -21.91 L 303.52 -1.37 C 303.52 -0.74 304.01 -0.25 304.64 -0.25 C 305.27 -0.25 305.8 -0.74 305.8 -1.37 L 305.8 -21.88 L 314.3 -10.19 C 315.07 -9.07 316.61 -9.07 317.38 -10.19 L 325.92 -21.91 L 325.92 -1.37 C 325.92 -0.74 326.41 -0.25 327.04 -0.25 C 327.67 -0.25 328.19 -0.74 328.19 -1.37 Z M 357.21 -1.86 L 348.78 -22.79 C 348.01 -24.68 345.49 -24.68 344.72 -22.79 L 336.28 -1.86 C 336.21 -1.72 336.18 -1.58 336.18 -1.4 C 336.18 -0.77 336.7 -0.28 337.33 -0.28 C 337.79 -0.28 338.21 -0.56 338.38 -0.95 L 340.13 -5.32 L 353.36 -5.32 L 355.11 -0.95 C 355.29 -0.56 355.71 -0.28 356.16 -0.28 C 356.79 -0.28 357.32 -0.77 357.32 -1.4 C 357.32 -1.58 357.28 -1.72 357.21 -1.86 Z M 341.04 -7.6 L 346.75 -21.77 L 352.45 -7.6 Z M 385.07 -1.37 L 385.07 -14.35 C 385.07 -19.81 380.63 -24.26 375.2 -24.26 C 369.67 -24.26 365.3 -19.81 365.3 -14.35 L 365.3 -1.37 C 365.3 -0.74 365.79 -0.25 366.42 -0.25 C 367.05 -0.25 367.57 -0.74 367.57 -1.37 L 367.57 -14.35 C 367.57 -18.73 370.79 -21.98 375.2 -21.98 C 379.54 -21.98 382.8 -18.73 382.8 -14.35 L 382.8 -1.37 C 382.8 -0.74 383.29 -0.25 383.92 -0.25 C 384.55 -0.25 385.07 -0.74 385.07 -1.37 Z M 393.05 -23.14 L 393.05 -10.15 C 393.05 -4.69 397.43 -0.28 402.96 -0.28 C 408.38 -0.28 412.83 -4.69 412.83 -10.15 L 412.83 -23.14 C 412.83 -23.77 412.3 -24.26 411.67 -24.26 C 411.04 -24.26 410.55 -23.77 410.55 -23.14 L 410.55 -10.15 C 410.55 -5.78 407.3 -2.56 402.96 -2.56 C 398.55 -2.56 395.33 -5.78 395.33 -10.15 L 395.33 -23.14 C 395.33 -23.77 394.8 -24.26 394.17 -24.26 C 393.54 -24.26 393.05 -23.77 393.05 -23.14 Z M 435.96 -24.26 L 422.63 -24.26 C 421.61 -24.26 420.81 -23.42 420.81 -22.4 L 420.81 -1.37 C 420.81 -0.74 421.3 -0.25 421.93 -0.25 C 422.56 -0.25 423.08 -0.74 423.08 -1.37 L 423.08 -11.13 L 432.46 -11.13 C 433.09 -11.13 433.58 -11.62 433.58 -12.25 C 433.58 -12.88 433.09 -13.41 432.46 -13.41 L 423.08 -13.41 L 423.08 -21.98 L 435.96 -21.98 C 436.59 -21.98 437.08 -22.47 437.08 -23.1 C 437.08 -23.73 436.59 -24.26 435.96 -24.26 Z M 461.9 -1.86 L 453.46 -22.79 C 452.69 -24.68 450.17 -24.68 449.4 -22.79 L 440.97 -1.86 C 440.9 -1.72 440.86 -1.58 440.86 -1.4 C 440.86 -0.77 441.39 -0.28 442.02 -0.28 C 442.47 -0.28 442.89 -0.56 443.07 -0.95 L 444.82 -5.32 L 458.05 -5.32 L 459.8 -0.95 C 459.97 -0.56 460.39 -0.28 460.85 -0.28 C 461.48 -0.28 462 -0.77 462 -1.4 C 462 -1.58 461.97 -1.72 461.9 -1.86 Z M 445.73 -7.6 L 451.43 -21.77 L 457.14 -7.6 Z M 486.71 -5.74 C 484.86 -3.71 482.48 -2.56 479.54 -2.56 C 473.94 -2.56 469.81 -6.69 469.81 -12.29 C 469.81 -17.82 473.94 -21.98 479.54 -21.98 C 481.85 -21.98 483.84 -21.21 485.52 -19.88 C 485.7 -19.71 485.94 -19.64 486.22 -19.64 C 486.85 -19.64 487.38 -20.13 487.38 -20.76 C 487.38 -21.11 487.2 -21.42 486.92 -21.63 C 484.93 -23.24 482.3 -24.26 479.54 -24.26 C 472.85 -24.26 467.53 -18.9 467.53 -12.29 C 467.53 -5.6 472.85 -0.28 479.54 -0.28 C 483.04 -0.28 486.19 -1.79 488.39 -4.2 C 488.57 -4.41 488.71 -4.69 488.71 -4.97 C 488.71 -5.6 488.18 -6.13 487.55 -6.13 C 487.2 -6.13 486.92 -5.95 486.71 -5.74 Z M 504.21 -1.37 L 504.21 -21.98 L 510.76 -21.98 C 511.39 -21.98 511.91 -22.47 511.91 -23.1 C 511.91 -23.73 511.39 -24.26 510.76 -24.26 L 495.36 -24.26 C 494.73 -24.26 494.24 -23.73 494.24 -23.1 C 494.24 -22.47 494.73 -21.98 495.36 -21.98 L 501.94 -21.98 L 501.94 -1.37 C 501.94 -0.74 502.43 -0.25 503.06 -0.25 C 503.69 -0.25 504.21 -0.74 504.21 -1.37 Z M 519.89 -23.14 L 519.89 -10.15 C 519.89 -4.69 524.26 -0.28 529.79 -0.28 C 535.22 -0.28 539.66 -4.69 539.66 -10.15 L 539.66 -23.14 C 539.66 -23.77 539.14 -24.26 538.51 -24.26 C 537.88 -24.26 537.39 -23.77 537.39 -23.14 L 537.39 -10.15 C 537.39 -5.78 534.13 -2.56 529.79 -2.56 C 525.38 -2.56 522.16 -5.78 522.16 -10.15 L 522.16 -23.14 C 522.16 -23.77 521.64 -24.26 521.01 -24.26 C 520.38 -24.26 519.89 -23.77 519.89 -23.14 Z M 564.16 -2.1 L 559.2 -8.93 C 562.35 -9.91 564.65 -12.88 564.65 -16.45 C 564.65 -20.76 561.15 -24.26 556.85 -24.26 L 549.47 -24.26 C 548.45 -24.26 547.64 -23.42 547.64 -22.4 L 547.64 -1.4 C 547.64 -0.77 548.13 -0.28 548.76 -0.28 C 549.39 -0.28 549.92 -0.77 549.92 -1.4 L 549.92 -8.58 L 550.06 -8.58 L 556.64 -8.58 L 562.35 -0.74 C 562.56 -0.46 562.87 -0.28 563.25 -0.28 C 563.88 -0.28 564.38 -0.81 564.38 -1.44 C 564.38 -1.68 564.31 -1.93 564.16 -2.1 Z M 549.92 -10.85 L 549.92 -21.98 L 556.85 -21.98 C 560.07 -21.98 562.38 -19.67 562.38 -16.45 C 562.38 -13.13 560.07 -10.85 556.85 -10.85 L 550.06 -10.85 Z M 587.79 -2.56 L 574.91 -2.56 L 574.91 -11.13 L 584.29 -11.13 C 584.92 -11.13 585.41 -11.62 585.41 -12.25 C 585.41 -12.88 584.92 -13.41 584.29 -13.41 L 574.91 -13.41 L 574.91 -21.98 L 587.79 -21.98 C 588.42 -21.98 588.91 -22.47 588.91 -23.1 C 588.91 -23.73 588.42 -24.26 587.79 -24.26 L 574.46 -24.26 C 573.44 -24.26 572.63 -23.42 572.63 -22.4 L 572.63 -2.1 C 572.63 -1.09 573.44 -0.28 574.46 -0.28 L 587.79 -0.28 C 588.42 -0.28 588.91 -0.77 588.91 -1.4 C 588.91 -2.03 588.42 -2.56 587.79 -2.56 Z M 613.41 -2.1 L 608.44 -8.93 C 611.59 -9.91 613.9 -12.88 613.9 -16.45 C 613.9 -20.76 610.4 -24.26 606.1 -24.26 L 598.71 -24.26 C 597.7 -24.26 596.89 -23.42 596.89 -22.4 L 596.89 -1.4 C 596.89 -0.77 597.38 -0.28 598.01 -0.28 C 598.64 -0.28 599.16 -0.77 599.16 -1.4 L 599.16 -8.58 L 599.31 -8.58 L 605.88 -8.58 L 611.59 -0.74 C 611.8 -0.46 612.12 -0.28 612.5 -0.28 C 613.13 -0.28 613.62 -0.81 613.62 -1.44 C 613.62 -1.68 613.55 -1.93 613.41 -2.1 Z M 599.16 -10.85 L 599.16 -21.98 L 606.1 -21.98 C 609.32 -21.98 611.63 -19.67 611.63 -16.45 C 611.63 -13.13 609.32 -10.85 606.1 -10.85 L 599.31 -10.85 Z" stroke-linecap="round" />
</g>
</g>
</g>
<g transform="matrix(1 0 0 1 325 384.8013143920458)" id="tagline-a508e979-615d-428a-88ae-d6b7b96f6ce0-logo"  >
<g style=""  paint-order="stroke"   >
		<g transform="matrix(1 0 0 1 0 0)" id="tagline-a508e979-615d-428a-88ae-d6b7b96f6ce0-logo-path-0"  >
<path style="stroke: none; stroke-width: 0; stroke-dasharray: none; stroke-linecap: butt; stroke-dashoffset: 0; stroke-linejoin: miter; stroke-miterlimit: 4; fill: rgb(53,53,53); fill-rule: nonzero; opacity: 1;"  paint-order="stroke"  transform=" translate(0, 0)" d="" stroke-linecap="round" />
</g>
</g>
</g>
</svg>